<svg width="16" height="16" viewBox="0 0 16 16" fill="none" xmlns="http://www.w3.org/2000/svg">
<path d="M4.74666 14.08C5.07333 14.4067 5.6 14.4067 5.92666 14.08L11.5333 8.47333C11.5951 8.41165 11.6442 8.33839 11.6776 8.25774C11.7111 8.17709 11.7283 8.09064 11.7283 8.00333C11.7283 7.91601 11.7111 7.82956 11.6776 7.74891C11.6442 7.66826 11.5951 7.595 11.5333 7.53333L5.92 1.91999C5.6 1.59999 5.06666 1.59999 4.74666 1.91999C4.66906 1.9974 4.60749 2.08936 4.56548 2.1906C4.52347 2.29185 4.50184 2.40038 4.50184 2.50999C4.50184 2.6196 4.52347 2.72814 4.56548 2.82938C4.60749 2.93062 4.66906 3.02258 4.74666 3.09999L9.64 7.99999L4.74 12.9C4.42 13.2267 4.42 13.7533 4.74666 14.08Z" fill="#9D3FE7"/>
</svg>
